<svg width="20" height="15" viewBox="0 0 20 15" fill="none" xmlns="http://www.w3.org/2000/svg">
<path fill-rule="evenodd" clip-rule="evenodd" d="M1.45945 0.98182C1.41648 0.991586 1.29562 1.02694 1.19089 1.06041L1.0005 1.12127L3.10495 3.22873C6.65042 6.7792 8.94046 9.01514 9.15058 9.13159C9.67269 9.42088 10.3165 9.42088 10.8386 9.13159C11.0487 9.01514 13.3388 6.7792 16.8838 3.22912L18.9879 1.12213L18.7979 1.04858C18.6141 0.977406 18.3303 0.974828 10.0727 0.969554C5.37839 0.966586 1.50242 0.972093 1.45945 0.98182ZM0.0864393 2.1558C0.0174549 2.33362 0.0136659 2.59729 0.00366588 7.86955C-0.00680287 13.3947 -0.00270131 13.5989 0.124564 13.8996L0.172025 14.0117L3.19855 11.0021L6.22507 7.99252L4.50632 6.26834C3.56101 5.32006 2.19609 3.96487 1.47316 3.25682L0.158783 1.96944L0.0864393 2.1558ZM16.7885 4.97639L13.7641 7.98674L16.7885 10.9971C19.036 13.2342 19.821 13.993 19.8444 13.9512C19.8617 13.9202 19.9026 13.7923 19.9353 13.667C19.987 13.4684 19.9946 12.7383 19.9946 7.98674C19.9946 3.23518 19.987 2.5051 19.9353 2.30651C19.9026 2.18119 19.8617 2.0533 19.8444 2.02233C19.821 1.98049 19.036 2.73928 16.7885 4.97639ZM4.01312 11.8478L0.991908 14.8494L1.20613 14.9239C1.41445 14.9964 1.65867 14.9985 9.9946 14.9985C18.2719 14.9985 18.5761 14.9959 18.7787 14.9253L18.9887 14.8522L17.2748 13.1357C16.3322 12.1916 14.9676 10.8381 14.2425 10.1278L12.9239 8.83635L12.3866 9.35881C12.091 9.64616 11.7452 9.95022 11.618 10.0345C10.6412 10.6819 9.34804 10.6819 8.37117 10.0345C8.24398 9.95022 7.90042 9.64838 7.60765 9.3637C7.31488 9.07901 7.06609 8.84612 7.0548 8.84612C7.04351 8.84612 5.67476 10.1969 4.01312 11.8478Z" fill="#CD3ED0"/>
</svg>
